Results
version=1
nRows=14
nColumns=24
inDegrees=yes
endheader
time	pelvis_tilt	pelvis_list	pelvis_rotation	pelvis_tx	pelvis_ty	pelvis_tz	hip_flexion_r	hip_adduction_r	hip_rotation_r	knee_angle_r	ankle_angle_r	subtalar_angle_r	mtp_angle_r	hip_flexion_l	hip_adduction_l	hip_rotation_l	knee_angle_l	ankle_angle_l	subtalar_angle_l	mtp_angle_l	lumbar_extension	lumbar_bending	lumbar_rotation
      0.74966667	     -3.69396095	     -2.19410393	      5.35611809	     -0.43196697	      1.02967143	      0.29941770	     14.67831498	      7.07379175	     -3.90356829	    -14.72258284	      3.08329642	     -6.56050801	     13.48679260	     21.49824855	     -2.66222771	     -1.13348683	    -65.00931231	     -1.22954206	     -3.34093095	      6.51602688	     -1.49984996	     -0.13443630	     -1.62586705
      0.75383333	     -3.66509264	     -2.11104514	      5.19756607	     -0.42665101	      1.03013859	      0.29977714	     14.28299725	      7.08060715	     -3.70122687	    -14.66863177	      3.21825217	     -6.53389866	     13.48388040	     21.90084619	     -2.63323139	     -1.26251536	    -64.61360010	     -0.45685648	     -3.96240275	      6.51098760	     -1.59954646	     -0.23064815	     -1.48076165
      0.75800000	     -3.66086438	     -2.01899489	      5.04308999	     -0.42132335	      1.03056906	      0.30011057	     13.91845534	      7.06460201	     -3.55208997	    -14.62431131	      3.32979651	     -6.51729200	     13.47767567	     22.31020827	     -2.58781134	     -1.38620352	    -64.14659686	      0.27728920	     -4.52677833	      6.50343969	     -1.64538813	     -0.33624829	     -1.36050891
      0.76216667	     -3.60974518	     -1.90560545	      4.88180742	     -0.41600693	      1.03110169	      0.30044993	     13.48224854	      7.03291467	     -3.35520793	    -14.54015306	      3.46909927	     -6.47576088	     13.45070334	     22.63827096	     -2.51995215	     -1.50719961	    -63.58355580	      0.87264296	     -5.11271823	      6.45329852	     -1.74921508	     -0.47614633	     -1.05788444
      0.76633333	     -3.62227066	     -1.81257528	      4.72282108	     -0.41071286	      1.03149123	      0.30077857	     13.13461790	      7.00773950	     -3.20955805	    -14.49057089	      3.58567228	     -6.43861360	     13.43239276	     23.03074236	     -2.46935157	     -1.62090821	    -62.97995709	      1.48959836	     -5.58968534	      6.42369343	     -1.79547879	     -0.59173496	     -0.92754080
      0.77050000	     -3.60263847	     -1.69248248	      4.56068547	     -0.40540662	      1.03196270	      0.30110016	     12.73171630	      6.95502976	     -3.04507867	    -14.40464975	      3.73672463	     -6.35487617	     13.38550819	     23.35321041	     -2.38814311	     -1.73143853	    -62.27548564	      1.96890538	     -6.07033400	      6.34130265	     -1.85449096	     -0.73845938	     -0.64187081
      0.77466667	     -3.60953720	     -1.57717294	      4.39288149	     -0.40014560	      1.03237030	      0.30140538	     12.37480257	      6.89865940	     -2.90559583	    -14.34838898	      3.86346083	     -6.28698431	     13.34913401	     23.69066079	     -2.31049706	     -1.84452984	    -61.51511079	      2.46159255	     -6.46385915	      6.28132684	     -1.91833126	     -0.86186854	     -0.48939212
      0.77883333	     -3.61729231	     -1.49086102	      4.24338227	     -0.39487370	      1.03273728	      0.30170264	     12.00318397	      6.86913036	     -2.79174322	    -14.24771582	      3.97590808	     -6.21253267	     13.32322551	     24.02210751	     -2.26502531	     -1.94021796	    -60.70836515	      2.92208360	     -6.80619136	      6.23998348	     -1.95883600	     -0.99616209	     -0.36643204
      0.78300000	     -3.60147925	     -1.36107623	      4.07659864	     -0.38961181	      1.03317220	      0.30196864	     11.61076353	      6.78823728	     -2.67335511	    -14.17105548	      4.14608937	     -6.05150216	     13.22155959	     24.28210757	     -2.16240188	     -2.03321966	    -59.78881556	      3.23268495	     -7.17156710	      6.07300285	     -2.03225469	     -1.13040048	     -0.00135234
      0.78716667	     -3.60373810	     -1.25309699	      3.90978729	     -0.38434919	      1.03354825	      0.30225148	     11.23275651	      6.73071541	     -2.55367152	    -14.07608289	      4.30059792	     -5.94859114	     13.11071344	     24.54866296	     -2.09384078	     -2.13906818	    -58.81878025	      3.54887857	     -7.44129059	      5.89671487	     -2.07177678	     -1.26516365	      0.19326502
      0.79133333	     -3.64401921	     -1.14088015	      3.73300528	     -0.37912462	      1.03384033	      0.30253178	     10.90709570	      6.66417072	     -2.42393782	    -13.99864093	      4.42378065	     -5.88190357	     13.06282359	     24.83654607	     -2.01950948	     -2.25156105	    -57.78696450	      3.86864733	     -7.66292485	      5.82029366	     -2.09375405	     -1.39154822	      0.28934790
      0.79550000	     -3.66655491	     -1.03656142	      3.55996227	     -0.37389427	      1.03413941	      0.30278859	     10.55255807	      6.60308179	     -2.30280242	    -13.89935449	      4.56336556	     -5.78302131	     13.00472766	     25.08185744	     -1.95092503	     -2.35518041	    -56.68502755	      4.10637021	     -7.90013006	      5.72491954	     -2.12435230	     -1.51577262	      0.46822672
      0.79966667	     -3.67670390	     -0.95076780	      3.39971480	     -0.36866886	      1.03443672	      0.30300135	     10.17960842	      6.55334349	     -2.22516186	    -13.78291773	      4.71099414	     -5.59966456	     12.82822655	     25.29559502	     -1.89115379	     -2.43056486	    -55.52246591	      4.29964443	     -8.17152717	      5.44262717	     -2.16191682	     -1.61081959	      0.79286879
      0.80383333	     -3.69296730	     -0.85901890	      3.22611568	     -0.36343469	      1.03469742	      0.30325690	      9.80878553	      6.50500686	     -2.09476476	    -13.65901072	      4.86504324	     -5.54713509	     12.73447625	     25.48794000	     -1.84217883	     -2.54346261	    -54.28854832	      4.43432591	     -8.36104443	      5.28619883	     -2.18323777	     -1.72838007	      0.91451952
